<?xml version="1.0" encoding="UTF-8"?>
<svg width="750px" height="600px" viewBox="0 0 750 600" xmlns="http://www.w3.org/2000/svg" xmlns:xlink="http://www.w3.org/1999/xlink" version="1.1">
 <!-- Generated by Pixelmator Pro 1.4 -->
 <path id="path" d="M39.362 0.4 C92.613 15.905 148.926 24.218 207.182 24.218 265.436 24.218 321.75 15.905 375 0.401 428.249 15.905 484.563 24.218 542.818 24.218 601.073 24.218 657.387 15.905 710.636 0.4 735.583 54.449 749.5 114.636 749.5 178.073 749.5 395.592 585.879 574.889 375 599.601 164.12 574.889 0.499 395.592 0.499 178.073 0.499 114.636 14.416 54.449 39.362 0.4 Z" fill="#ffffff" fill-opacity="1" stroke="#000000" stroke-width="1" stroke-opacity="1" stroke-linejoin="round"/>
 <path id="path-1" d="M39.362 0.4 C92.613 15.905 148.926 24.218 207.182 24.218 265.436 24.218 321.75 15.905 375 0.401 428.249 15.905 484.563 24.218 542.818 24.218 601.073 24.218 657.387 15.905 710.636 0.4 735.583 54.449 749.5 114.636 749.5 178.073 749.5 395.592 585.879 574.889 375 599.601 164.12 574.889 0.499 395.592 0.499 178.073 0.499 114.636 14.416 54.449 39.362 0.4 Z" fill="#ffffff" fill-opacity="1" stroke="#000000" stroke-width="1" stroke-opacity="1" stroke-linejoin="round"/>
 <path id="path-2" d="M12.983 176.012 C12.983 163.1 13.571 150.327 14.721 137.717 L735.278 137.717 C736.429 150.327 737.017 163.1 737.017 176.012 737.017 387.649 578.992 562.206 375 587.118 171.008 562.206 12.983 387.649 12.983 176.012 Z" fill="#003f87" fill-opacity="1" stroke="none"/>
 <path id="path-3" d="M45.399 15.278 C96.599 29.282 150.418 36.75 205.945 36.75 264.558 36.75 321.267 28.43 375 12.883 428.734 28.43 485.443 36.75 544.055 36.75 599.583 36.75 653.402 29.283 704.6 15.278 718.948 49.813 728.91 86.707 733.771 125.233 L16.228 125.233 C21.09 86.707 31.052 49.813 45.399 15.278 Z" fill="#af1e2d" fill-opacity="1" stroke="none"/>
 <defs>
  <text id="string" transform="matrix(1.0 0.0 0.0 1.0 44.0 163.0)">
   <tspan x="61.39999999999998" y="277.0" font-family="HighwayGothic, Highway Gothic" font-size="320" text-decoration="none" fill="#ffffff">4</tspan>
   <tspan x="242.2" y="277.0" font-family="HighwayGothic, Highway Gothic" font-size="320" text-decoration="none" fill="#ffffff">0</tspan>
   <tspan x="423.0" y="277.0" font-family="HighwayGothic, Highway Gothic" font-size="320" text-decoration="none" fill="#ffffff">5</tspan>
  </text>
 </defs>
 <use id="405" xlink:href="#string"/>
 <path id="path-4" d="M183.538 112.75 L183.538 50.334 192.294 50.334 192.294 112.75 183.538 112.75 Z M234.326 112.75 L215.043 70.922 215.043 112.75 206.099 112.75 206.099 50.334 215.043 50.334 232.183 87.784 232.183 50.334 241.127 50.334 241.127 112.75 234.326 112.75 Z M270.235 58.627 L270.235 112.75 261.2 112.75 261.2 58.627 249.834 58.627 249.834 50.334 281.601 50.334 281.601 58.627 270.235 58.627 Z M290.158 112.75 L290.158 50.334 319.503 50.334 319.503 59.093 299.102 59.093 299.102 74.834 312.052 74.834 312.052 83.406 299.102 83.406 299.102 103.994 321.925 103.994 321.925 112.75 290.158 112.75 Z M358.175 112.75 L349.883 83.406 341.314 83.406 341.314 112.75 332.37 112.75 332.37 50.334 351.003 50.334 C353.425 50.334 355.645 50.738 357.664 51.545 359.682 52.353 361.421 53.471 362.88 54.9 364.34 56.329 365.457 58.083 366.234 60.163 367.01 62.244 367.398 64.526 367.398 67.011 367.398 70.737 366.652 73.904 365.162 76.513 363.671 79.122 361.435 80.984 358.454 82.101 L367.398 112.75 358.175 112.75 Z M358.642 67.011 C358.641 64.589 357.896 62.663 356.406 61.235 354.915 59.807 352.958 59.093 350.536 59.093 L341.314 59.093 341.314 74.834 350.536 74.834 C353.144 74.834 355.147 74.167 356.545 72.832 357.943 71.496 358.641 69.556 358.642 67.011 L358.642 67.011 Z M409.624 95.701 C409.624 98.249 409.173 100.624 408.273 102.829 407.373 105.033 406.131 106.942 404.548 108.557 402.964 110.172 401.132 111.461 399.051 112.423 396.97 113.386 394.718 113.868 392.296 113.868 389.563 113.868 387.11 113.34 384.937 112.284 382.764 111.228 380.932 109.8 379.442 108 377.951 106.199 376.802 104.119 375.995 101.758 375.187 99.398 374.784 96.945 374.784 94.399 L383.54 94.399 C383.54 95.703 383.71 96.992 384.052 98.264 384.393 99.537 384.921 100.686 385.635 101.711 386.35 102.737 387.25 103.56 388.337 104.18 389.424 104.801 390.744 105.111 392.296 105.111 393.477 105.111 394.611 104.863 395.698 104.367 396.785 103.87 397.716 103.187 398.492 102.317 399.268 101.447 399.889 100.438 400.354 99.289 400.82 98.141 401.052 96.945 401.052 95.701 401.052 93.901 400.68 92.302 399.935 90.905 399.19 89.509 397.886 88.096 396.023 86.667 395.712 86.356 395.588 86.185 395.651 86.153 395.713 86.122 395.527 85.952 395.092 85.642 394.657 85.332 393.741 84.726 392.343 83.825 390.945 82.924 388.663 81.387 385.496 79.215 382.95 77.475 381.041 75.441 379.767 73.112 378.494 70.782 377.857 68.221 377.857 65.427 377.857 63.191 378.26 61.094 379.068 59.139 379.875 57.183 381.009 55.459 382.468 53.969 383.927 52.478 385.62 51.313 387.546 50.475 389.471 49.636 391.551 49.217 393.786 49.217 396.022 49.217 398.088 49.62 399.982 50.428 401.876 51.235 403.522 52.354 404.919 53.782 406.315 55.212 407.433 56.92 408.272 58.907 409.11 60.894 409.561 63.068 409.624 65.427 L401.052 65.427 C400.929 63.253 400.184 61.514 398.818 60.21 397.451 58.906 395.774 58.255 393.786 58.254 391.737 58.255 389.998 58.938 388.57 60.304 387.142 61.671 386.428 63.378 386.428 65.427 386.428 66.979 386.832 68.283 387.639 69.339 388.447 70.395 389.999 71.574 392.296 72.878 398.321 76.356 402.715 79.896 405.479 83.498 408.242 87.1 409.624 91.168 409.624 95.701 L409.624 95.701 Z M435.625 58.627 L435.625 112.75 426.59 112.75 426.59 58.627 415.224 58.627 415.224 50.334 446.991 50.334 446.991 58.627 435.625 58.627 Z M481.632 112.75 L477.254 95.701 463.838 95.701 459.741 112.75 450.704 112.75 466.26 50.334 475.019 50.334 490.576 112.75 481.632 112.75 Z M470.454 68.967 L466.075 86.945 475.019 86.945 470.454 68.967 Z M514.772 58.627 L514.772 112.75 505.737 112.75 505.737 58.627 494.371 58.627 494.371 50.334 526.138 50.334 526.138 58.627 514.772 58.627 Z M534.695 112.75 L534.695 50.334 564.04 50.334 564.04 59.093 543.639 59.093 543.639 74.834 556.588 74.834 556.588 83.406 543.639 83.406 543.639 103.994 566.462 103.994 566.462 112.75 534.695 112.75 Z" fill="#ffffff" fill-opacity="1" stroke="none"/>
</svg>
