<?xml version="1.0" encoding="UTF-8"?>
<svg width="308px" height="308px" viewBox="0 0 308 308" xmlns="http://www.w3.org/2000/svg" xmlns:xlink="http://www.w3.org/1999/xlink" version="1.1">
 <!-- Generated by Pixelmator Pro 1.5.4 -->
 <path id="5" d="M171.845 200.62 L307.809 200.62 307.809 107.815 171.152 107.815 185.719 56.174 C185.719 56.174 185.719 53.181 185.719 52.432 185.719 39.709 178.089 33.722 167.683 33.722 165.602 33.722 164.215 33.722 163.521 33.722 161.44 33.722 160.053 33.722 157.971 35.218 L-0.191 151.972 C-0.191 153.469 -0.191 155.714 1.197 156.463 L156.584 271.72 C161.44 275.462 162.827 274.714 166.99 274.714 177.395 274.714 185.719 268.726 185.719 256.751 185.719 251.512 185.719 251.512 184.332 246.273 182.251 239.538 173.926 209.601 171.845 202.865 Z" fill="#ffffff" fill-opacity="1" stroke="none"/>
</svg>
