<?xml version="1.0" encoding="UTF-8"?>
<svg width="308px" height="308px" viewBox="0 0 308 308" xmlns="http://www.w3.org/2000/svg" xmlns:xlink="http://www.w3.org/1999/xlink" version="1.1">
 <!-- Generated by Pixelmator Pro 1.5.4 -->
 <path id="5" d="M135.773 107.876 L-0.191 107.876 -0.191 200.681 136.467 200.681 121.899 252.322 C121.899 252.322 121.899 255.316 121.899 256.064 121.899 268.787 129.53 274.775 139.935 274.775 142.016 274.775 143.404 274.775 144.098 274.775 146.178 274.775 147.566 274.775 149.647 273.278 L307.809 156.524 C307.809 155.027 307.809 152.782 306.422 152.033 L151.034 36.776 C146.178 33.034 144.791 33.783 140.629 33.783 130.224 33.783 121.899 39.77 121.899 51.745 121.899 56.984 121.899 56.984 123.287 62.223 125.368 68.958 133.692 98.895 135.773 105.631 Z" fill="#ffffff" fill-opacity="1" stroke="none"/>
</svg>
